<svg width="32" height="32" viewBox="0 0 32 32" fill="none" xmlns="http://www.w3.org/2000/svg">
<path d="M16.3904 20.9428C16.9111 21.4635 17.7554 21.4635 18.2761 20.9428C18.7968 20.4221 18.7968 19.5779 18.2761 19.0572L16.3904 20.9428ZM13.3333 16L12.3904 15.0572C11.8697 15.5779 11.8697 16.4221 12.3904 16.9428L13.3333 16ZM18.2761 12.9428C18.7968 12.4221 18.7968 11.5779 18.2761 11.0572C17.7554 10.5365 16.9111 10.5365 16.3904 11.0572L18.2761 12.9428ZM18.2761 19.0572L14.2761 15.0572L12.3904 16.9428L16.3904 20.9428L18.2761 19.0572ZM14.2761 16.9428L18.2761 12.9428L16.3904 11.0572L12.3904 15.0572L14.2761 16.9428Z" fill="#2E2E2E"/>
</svg>
