<svg width="102" height="92" viewBox="0 0 102 92" fill="none" xmlns="http://www.w3.org/2000/svg">
<path d="M100.871 82.3743C98.7223 77.0502 97.3686 71.8752 100.517 66.2743C102.16 63.3674 101.978 59.7576 101.978 56.3822C102.096 38.685 90.1597 24.31 72.2715 20.9664C70.9262 20.7887 69.6418 20.3 68.5221 19.5398C67.4024 18.7796 66.4786 17.7692 65.8253 16.5901C61.4091 9.48391 54.5707 4.18068 46.5491 1.64128C38.5276 -0.898114 29.8536 -0.505686 22.0988 2.74746C6.18747 9.28543 -3.43882 26.8442 1.14871 43.4873C3.13628 50.6961 3.81313 56.9891 0.708223 63.7188C0.1232 64.7449 -0.089271 65.9388 0.106232 67.1014C0.301735 68.264 0.893398 69.325 1.78259 70.1076C2.54964 70.8579 3.54265 71.3397 4.61097 71.48C5.67929 71.6202 6.76462 71.4113 7.70232 70.885C14.1485 67.8715 20.5947 66.6257 27.2665 70.4484C28.0652 70.8462 28.9515 71.0402 29.8449 71.0127C32.9928 71.0127 34.6903 72.6845 36.3448 75.272C44.9397 88.8271 61.1411 95.3651 75.9673 90.3178C81.973 88.2627 87.0225 88.1882 92.5662 90.6266C95.1554 91.7553 98.0455 92.8095 100.484 90.3072C102.923 87.8049 101.978 85.0577 100.871 82.3743ZM24.7847 58.5651C21.1963 56.7549 17.9303 56.3076 13.1171 58.235C15.427 53.3688 14.5245 50.1317 12.7733 46.522C10.1531 41.1357 9.54507 35.0029 11.0575 29.2141C12.5699 23.4253 16.1046 18.3557 21.0332 14.9067C25.9618 11.4577 31.9648 9.85289 37.9749 10.3775C43.9849 10.9021 49.6125 13.5223 53.8569 17.772C58.0689 22.0225 60.6625 27.5897 61.1954 33.5239C61.7283 39.4581 60.1675 45.3917 56.7792 50.3127C53.3584 55.2945 48.2298 58.8768 42.3457 60.3945C36.4616 61.9122 30.2218 61.2621 24.7847 58.5651V58.5651ZM89.5258 66.6257C87.7961 70.3206 86.3027 73.7067 88.6233 78.3387C83.3804 75.1442 79.459 78.3387 75.1508 80.0317C64.2353 84.2271 52.5892 80.4257 45.6058 70.4484C49.3016 68.766 53.1264 67.3817 56.3495 64.9752C66.7063 57.3725 71.6054 47.0438 71.455 34.3618C71.455 31.3164 72.1319 31.2632 74.6781 32.0512C88.5696 36.353 95.886 52.9748 89.5258 66.6151V66.6257Z" fill="#626262"/>
</svg>
