<svg width="104" height="104" viewBox="0 0 104 104" fill="none" xmlns="http://www.w3.org/2000/svg">
<circle opacity="0.5" cx="52" cy="52" r="52" fill="white"/>
<path d="M51.5 60.3335C54.7447 60.3335 57.375 57.7032 57.375 54.4585C57.375 51.2138 54.7447 48.5835 51.5 48.5835C48.2553 48.5835 45.625 51.2138 45.625 54.4585C45.625 57.7032 48.2553 60.3335 51.5 60.3335Z" stroke="white" stroke-width="2" stroke-linecap="round" stroke-linejoin="round"/>
<path d="M67.1667 42.7085H35.8333C34.7518 42.7085 33.875 43.5853 33.875 44.6668V64.2502C33.875 65.3317 34.7518 66.2085 35.8333 66.2085H67.1667C68.2482 66.2085 69.125 65.3317 69.125 64.2502V44.6668C69.125 43.5853 68.2482 42.7085 67.1667 42.7085Z" stroke="white" stroke-width="2" stroke-linecap="round" stroke-linejoin="round"/>
<path d="M55.9635 36.8335H47.0364C46.1935 36.8335 45.4452 37.3729 45.1786 38.1726L44.5258 40.1309C44.1031 41.399 45.047 42.7085 46.3837 42.7085H56.6162C57.9529 42.7085 58.8968 41.399 58.4741 40.1309L57.8213 38.1725C57.5547 37.3729 56.8064 36.8335 55.9635 36.8335Z" stroke="white" stroke-width="2" stroke-linecap="round" stroke-linejoin="round"/>
</svg>
