<svg width="24" height="24" viewBox="0 0 24 24" fill="none" xmlns="http://www.w3.org/2000/svg">
<path d="M13 4H12H13ZM13 9V10C13.2652 10 13.5196 9.89464 13.7071 9.70711C13.8946 9.51957 14 9.26522 14 9H13ZM4 9H3C3 9.55228 3.44772 10 4 10L4 9ZM4 3L4 2C3.73478 2 3.48043 2.10536 3.29289 2.29289C3.10536 2.48043 3 2.73478 3 3L4 3ZM12 3V2V3ZM12 4V9H14V4H12ZM13 8L4 8L4 10L13 10V8ZM5 9L5 3L3 3L3 9H5ZM4 4L12 4V2L4 2L4 4ZM14 4C14 2.89543 13.1046 2 12 2V4H14Z" fill="#626262"/>
<path d="M20 10H19H20ZM20 14H21H20ZM19 15V14V15ZM4 15H3C3 15.2652 3.10536 15.5196 3.29289 15.7071C3.48043 15.8946 3.73478 16 4 16L4 15ZM4 9L4 8C3.73478 8 3.48043 8.10536 3.29289 8.29289C3.10536 8.48043 3 8.73478 3 9L4 9ZM19 9V8V9ZM19 10V14H21V10H19ZM19 14L4 14L4 16L19 16V14ZM5 15L5 9L3 9L3 15H5ZM4 10L19 10V8L4 8L4 10ZM19 14V16C20.1046 16 21 15.1046 21 14H19ZM21 10C21 8.89543 20.1046 8 19 8V10H21Z" fill="#626262"/>
<path d="M16 15H17C17 14.4477 16.5523 14 16 14V15ZM16 20H17H16ZM15 21V20V21ZM4 21H3C3 21.2652 3.10536 21.5196 3.29289 21.7071C3.48043 21.8946 3.73478 22 4 22L4 21ZM4 15L4 14C3.73478 14 3.48043 14.1054 3.29289 14.2929C3.10536 14.4804 3 14.7348 3 15L4 15ZM15 15V20H17V15H15ZM15 20L4 20L4 22L15 22V20ZM5 21L5 15L3 15L3 21H5ZM4 16L16 16V14L4 14L4 16ZM15 20V22C16.1046 22 17 21.1046 17 20H15Z" fill="#626262"/>
</svg>
